<?xml version="1.0"?>
<svg xmlns="http://www.w3.org/2000/svg" xmlns:xlink="http://www.w3.org/1999/xlink" version="1.1" id="Capa_1" x="0px" y="0px" viewBox="0 0 512 512" style="enable-background:new 0 0 512 512;" xml:space="preserve" width="512px" height="512px"><g><g>
	<g>
		<path d="M440.743,301.77l-92.26-30.753l40.379-67.299c3.541-5.902,2.611-13.457-2.256-18.324s-12.421-5.797-18.324-2.256    l-67.211,40.327l-30.831-93.176C268.209,124.147,262.469,120,256,120s-12.209,4.147-14.24,10.288l-30.831,93.177l-67.211-40.327    c-5.901-3.542-13.457-2.612-18.324,2.256c-4.867,4.867-5.797,12.422-2.256,18.324l40.379,67.299l-92.26,30.753    C65.132,303.812,61,309.544,61,316s4.132,12.188,10.257,14.23l92.26,30.753l-40.379,67.299    c-3.541,5.902-2.611,13.457,2.256,18.324c4.867,4.868,12.422,5.797,18.324,2.256l67.211-40.327l30.831,93.177    C243.791,507.853,249.531,512,256,512s12.209-4.147,14.24-10.288l30.831-93.176l67.211,40.327    c5.907,3.545,13.462,2.607,18.324-2.256c4.867-4.867,5.797-12.422,2.256-18.324l-40.379-67.299l92.26-30.753    C446.868,328.189,451,322.456,451,316S446.868,303.812,440.743,301.77z M332.268,239.732l-12.939,21.566l-6.45-2.15l-2.148-6.493    L332.268,239.732z M256,182.751c2.554,7.719,25.429,76.85,27.855,84.182L256,294.787l-27.855-27.855    C230.537,259.703,253.386,190.651,256,182.751z M201.271,252.655l-2.148,6.493l-6.45,2.15l-12.939-21.566L201.271,252.655z     M179.732,392.268l12.939-21.566l6.45,2.15l2.148,6.493L179.732,392.268z M206.949,343.838    c-9.467-3.156-72.762-24.254-83.514-27.838c8.339-2.78,72.067-24.023,83.514-27.838L234.787,316L206.949,343.838z M256,449.25    c-2.582-7.803-25.433-76.863-27.855-84.182L256,337.213l27.855,27.855C281.459,372.309,258.618,441.337,256,449.25z     M310.73,379.345l2.148-6.493l6.45-2.15l12.939,21.566L310.73,379.345z M305.051,343.838L277.213,316l27.838-27.838    c35.03,11.677,75.994,25.331,83.514,27.838C379.04,319.176,312.917,341.217,305.051,343.838z" data-original="#000000" class="active-path" data-old_color="#000000" fill="#FFFFFF"/>
	</g>
</g><g>
	<g>
		<path d="M286,0c-8.284,0-15,6.716-15,15v23.787L236.606,4.393c-4.289-4.291-10.742-5.572-16.347-3.251    C214.654,3.464,211,8.933,211,15v60c0,8.284,6.716,15,15,15s15-6.716,15-15V51.213l34.394,34.394    c2.869,2.87,6.706,4.394,10.609,4.394c1.933,0,3.882-0.374,5.737-1.142C297.345,86.537,301,81.067,301,75V15    C301,6.716,294.284,0,286,0z" data-original="#000000" class="active-path" data-old_color="#000000" fill="#FFFFFF"/>
	</g>
</g></g> </svg>
