<?xml version="1.0" encoding="utf-8"?>
<!-- Generator: Adobe Illustrator 24.1.1, SVG Export Plug-In . SVG Version: 6.00 Build 0)  -->
<svg version="1.1" id="Capa_1" xmlns="http://www.w3.org/2000/svg" xmlns:xlink="http://www.w3.org/1999/xlink" x="0px" y="0px"
	 viewBox="0 0 512 512" style="enable-background:new 0 0 512 512;" xml:space="preserve">
<style type="text/css">
	.st0{fill:#FFFFFF;}
</style>
<g>
	<g>
		<g>
			<path class="st0" d="M509.8,344.8V167.2c0-5.8-4.7-10.5-10.5-10.5l-486.7,0c-5.8,0-10.5,4.7-10.5,10.5v177.6
				c0,5.8,4.7,10.5,10.5,10.5h486.7C505.1,355.3,509.8,350.6,509.8,344.8z M23.1,334.3l0-156.5h117.6l0,53.4
				c-0.1,5.8,4.5,10.6,10.3,10.6c5.8,0.1,10.6-4.5,10.6-10.3c0-0.1,0-0.1,0-0.3l-0.1-53.3h38.8v83.2c0,5.8,4.8,10.6,10.6,10.4
				c5.8,0,10.5-4.7,10.5-10.5v-83.2h38.8l0.1,53.3c0,5.8,4.7,10.5,10.5,10.5c5.8,0,10.5-4.7,10.5-10.5l-0.1-53.3H320V261
				c0,5.8,4.7,10.5,10.5,10.5c5.8,0,10.5-4.7,10.5-10.5v-83.2h38.8v53.4c0,5.8,4.6,10.6,10.4,10.6c5.8,0,10.6-4.6,10.6-10.4
				c0,0,0,0,0-0.1l0.4-53.4H440V261c0,5.8,4.7,10.5,10.5,10.5s10.5-4.7,10.5-10.5v-83.2l27.9,0l0,156.5H23.1z"/>
		</g>
	</g>
	<g>
		<g>
			<path class="st0" d="M111.8,257.3c-0.1-18.7-15.2-33.7-33.7-33.7c-18.7,0.1-33.7,15.2-33.7,33.7s15.2,33.7,33.7,33.7
				S111.7,276,111.8,257.3z M79,270.6c-0.3,0-0.7,0-1.1-0.5c-7,0-12.7-5.7-12.8-12.8c0-7,5.7-12.7,12.8-12.8c7,0,12.7,5.7,12.8,12.8
				C91,264.3,86,270.3,79,270.6z"/>
		</g>
	</g>
</g>
</svg>
